<?xml version="1.0" standalone="no"?>
<!DOCTYPE svg PUBLIC "-//W3C//DTD SVG 1.1//EN" "http://www.w3.org/Graphics/SVG/1.1/DTD/svg11.dtd" >
<svg xmlns="http://www.w3.org/2000/svg">
<metadata>
This is a custom SVG webfont generated by Font Squirrel.
Copyright   : Copyright c 2008 by Tyler Finck  All rights reserved
Designer    : Tyler Finck
Foundry     : Sursly
Foundry URL : httpwwwsurslycom
</metadata>
<defs>
<font id="webfontXyt5a0LX" horiz-adv-x="1005" >
<font-face units-per-em="2048" ascent="1536" descent="-512" />
<missing-glyph horiz-adv-x="1024" />
<glyph unicode=" "  horiz-adv-x="1024" />
<glyph unicode="&#x09;" horiz-adv-x="1024" />
<glyph unicode="&#xa0;" horiz-adv-x="1024" />
<glyph unicode="!" horiz-adv-x="423" d="M-16 0v1720h456v-1720h-456zM72 639h276v852h-276v-852zM74 264h274v277h-274v-277z" />
<glyph unicode="$" horiz-adv-x="806" d="M-10 0v1720h831v-1720h-831zM74 696q0 -104 58 -187t151 -120v-125h276v139q78 41 127 119t49 174q0 68 -26.5 128.5t-71.5 105.5t-105.5 70.5t-128.5 25.5h-10q-18 4 -31.5 19.5t-13.5 35.5q0 23 16.5 40.5t38.5 17.5q25 0 41.5 -17.5t16.5 -40.5h274q0 96 -49 174 t-127 119v127h-276v-112q-92 -37 -150.5 -120t-58.5 -188q0 -68 25.5 -128t70.5 -105t105.5 -70.5t127.5 -25.5h11q20 -4 33.5 -19.5t13.5 -36.5q0 -23 -16.5 -40t-41.5 -17q-23 0 -39 17.5t-16 39.5h-274z" />
<glyph unicode="%" horiz-adv-x="1292" d="M-18 0v1720h1316v-1720h-1316zM59 1092q0 -41 15.5 -78t43 -64.5t63.5 -43t77 -15.5q84 0 142.5 58.5t58.5 142.5q0 41 -15.5 76.5t-43 63.5t-64.5 43t-78 15t-77 -15t-63.5 -43t-43 -63.5t-15.5 -76.5zM131 264h277l720 1227h-276zM809 688q0 -84 58.5 -142.5 t142.5 -58.5q41 0 76.5 15.5t63.5 43t43 64.5t15 78t-15 77t-43 63.5t-63.5 43t-76.5 15.5t-78 -15.5t-64.5 -43t-43 -63.5t-15.5 -77z" />
<glyph unicode="&#x26;" horiz-adv-x="1187" d="M-18 0v1720h1226v-1720h-1226zM86 684q0 -86 33 -160.5t88 -130t130 -87.5t159 -32q94 0 174 39t137 105l149 -152l172 172l-153 152l162 160l-166 165l-160 -161l-186 188q72 35 114.5 102.5t42.5 153.5q0 59 -22.5 111.5t-61.5 91.5t-91 61.5t-111 22.5t-111.5 -22.5 t-91.5 -61.5t-61.5 -91.5t-22.5 -111.5q0 -49 15.5 -94t43.5 -80q-82 -55 -132 -144.5t-50 -195.5z" />
<glyph unicode="'" horiz-adv-x="428" d="M-14 0v1720h456v-1720h-456zM78 1212h106l-88 -153h168l88 153v277h-274v-277z" />
<glyph unicode="*" horiz-adv-x="778" d="M-18 0v1720h809v-1720h-809zM70 1362l163 -43l-120 -121l129 -127l155 154l150 -150l129 127l-117 117l164 43l-47 176l-191 -51v174h-182v-174l-188 51z" />
<glyph unicode="+" horiz-adv-x="1032" d="M-20 0v1720h1071v-1720h-1071zM88 752h289v-289h276v289h289v276h-289v289h-276v-289h-289v-276z" />
<glyph unicode="," horiz-adv-x="432" d="M-14 0v1720h456v-1720h-456zM78 264h106l-86 -153h168l88 153v277h-276v-277z" />
<glyph unicode="-" d="M-39 0v1720h1071v-1720h-1071zM68 752h852v276h-852v-276z" />
<glyph unicode="." horiz-adv-x="428" d="M-14 0v1720h456v-1720h-456zM78 264h274v277h-274v-277z" />
<glyph unicode="0" horiz-adv-x="894" d="M-18 0v1720h933v-1720h-933zM53 606q0 -72 32 -139.5t86 -119.5t125 -83t150 -31q80 0 152 31t124 84t83 125t31 152v2v41v403v39v2q0 82 -31 152.5t-83 124t-124 84t-152 30.5q-82 0 -152.5 -30.5t-123.5 -84t-85 -124t-32 -152.5v-506z" />
<glyph unicode="1" horiz-adv-x="647" d="M-18 0v1720h688v-1720h-688zM27 1243l202 -203l47 47v-854h287v1272h-287z" />
<glyph unicode="2" horiz-adv-x="909" d="M-20 0v1720h940v-1720h-940zM59 1110h287q0 45 32 76t75 31q35 0 62.5 -20.5t37.5 -53.5q6 -16 6 -31q0 -29 -16 -55l-463 -535v-286h762v286h-396l285 318q53 57 84 123.5t31 146.5q0 61 -19 117q-18 61 -54 112.5t-85 88t-109.5 57t-125.5 20.5q-82 0 -154 -31.5 t-125 -85t-84 -125t-31 -153.5z" />
<glyph unicode="3" horiz-adv-x="884" d="M-23 0v1720h922v-1720h-922zM49 629q0 -82 31 -154t84 -126t124.5 -85t151.5 -31q66 0 126.5 20.5t109.5 57.5t85 88.5t54 112.5q18 55 19 117q0 70 -23 130t-63 109q41 49 63.5 110.5t22.5 131.5q0 61 -19 117q-18 61 -54 112.5t-85 88t-109.5 57t-126.5 20.5 q-80 0 -151.5 -31.5t-124.5 -85t-84 -125t-31 -153.5h287q0 45 30.5 76t73.5 31q35 0 63.5 -20.5t39.5 -53.5q4 -20 4 -31q0 -45 -31 -72.5t-76 -27.5h-180v-287h180q45 0 76 -27.5t31 -70.5q0 -10 -4 -31q-10 -33 -39 -53.5t-64 -20.5q-43 0 -73.5 31t-30.5 76h-287z" />
<glyph unicode="4" horiz-adv-x="978" d="M-20 0v1720h1017v-1720h-1017zM61 725h420v-492h285v492h156v287h-156v493h-285v-4l-420 -489v-287z" />
<glyph unicode="5" horiz-adv-x="909" d="M-25 0v1720h959v-1720h-959zM66 629q0 -82 30.5 -154t83.5 -125t125 -83.5t154 -30.5q80 0 151.5 30.5t124.5 83.5t84 125t31 154v98v4v47q0 61 -26.5 123t-77 110t-123 77.5t-164.5 29.5q-57 0 -107 -14v110h475v287h-761v-287v-487h286q0 43 31 73.5t76 30.5 q53 0 82.5 -32.5t29.5 -73.5v-96q0 -43 -34.5 -75t-77.5 -32q-45 0 -76 31t-31 76h-286z" />
<glyph unicode="6" horiz-adv-x="917" d="M-18 0v1720h948v-1720h-948zM74 616q0 -80 31.5 -148.5t85 -120.5t125 -81.5t151.5 -29.5t151.5 30.5t125 83.5t84 125t30.5 152v2q0 80 -30.5 151.5t-84 124.5t-125 84t-151.5 31q-29 0 -55.5 -4t-51.5 -10v112q0 43 31 74t76 31q43 0 74.5 -31t31.5 -74h285 q0 80 -30.5 151.5t-84 125t-124 84t-152.5 30.5q-80 0 -150.5 -30.5t-125 -81.5t-86 -119t-31.5 -141v-521z" />
<glyph unicode="7" horiz-adv-x="921" d="M-16 0v1720h948v-1720h-948zM51 233h287l530 986v284h-116v2h-19v-2h-672v-284h519z" />
<glyph unicode="8" horiz-adv-x="903" d="M-27 0v1720h947v-1720h-947zM53 625q0 -80 32 -152t85 -125t124 -84t152 -31q80 0 152 31t125 84t84 125t31 152v2q0 72 -23.5 133t-64.5 108q41 49 64.5 110.5t23.5 131.5v2q0 82 -31 152.5t-84 124t-125 84t-152 30.5q-82 0 -152.5 -30.5t-123.5 -84t-85 -124 t-32 -152.5v-2q0 -70 24.5 -131t65.5 -111q-41 -47 -65.5 -108.5t-24.5 -132.5v-2z" />
<glyph unicode="9" horiz-adv-x="903" d="M-25 0v1720h949v-1720h-949zM55 629q0 -82 31 -154t84 -125t125 -83.5t154 -30.5q78 0 149.5 30.5t125.5 81.5t86 119t32 141v522q0 78 -32 148t-85 121t-125 80.5t-151 29.5q-82 0 -153 -30.5t-124 -84t-85 -124t-32 -152.5t32 -153.5t85 -125t124 -84t153 -30.5 q51 0 106 16v-112q0 -45 -31.5 -76t-74.5 -31q-45 0 -76 31t-31 76h-287z" />
<glyph unicode=":" horiz-adv-x="434" d="M-12 0v1720h456v-1720h-456zM78 264h274v277h-274v-277zM78 813h274v277h-274v-277z" />
<glyph unicode=";" horiz-adv-x="436" d="M-10 0v1720h456v-1720h-456zM84 264h106l-88 -153h168l88 153v277h-274v-277zM84 813h274v277h-274v-277z" />
<glyph unicode="=" horiz-adv-x="1024" d="M-20 0v1720h1071v-1720h-1071zM88 469h854v276h-854v-276zM88 1042h854v279h-854v-279z" />
<glyph unicode="?" horiz-adv-x="946" d="M-20 0v1720h981v-1720h-981zM86 1110h274q0 43 34 73.5t83 30.5q43 0 74 -30.5t31 -73.5q0 -31 -25 -55.5t-90 -65.5l-71 -46q-38 -26 -69.5 -61.5t-53 -81.5t-21.5 -106v-51h274v23q0 10 2 20t7 19q10 16 32 27l45 24q37 23 79 53.5t79 72.5t61.5 98t24.5 130 q0 78 -29.5 147.5t-81 121t-121 81t-147.5 29.5q-82 0 -152.5 -29.5t-124 -81t-84 -121t-30.5 -147.5zM252 264h274v277h-274v-277z" />
<glyph unicode="@" horiz-adv-x="1370" d="M-18 0v1720h1400v-1720h-1400zM74 881q0 -115 41 -215q37 -98 106 -183q4 -4 8 -9t9 -9l16 -16q23 -23 45.5 -41.5t46.5 -34.5q51 -35 103 -56h2v-2q4 0 4 -2h4q27 -10 54.5 -19t55.5 -13q55 -12 117 -13q80 0 160 23q84 23 151 63l-108 109l-109 108q-29 -8 -55.5 -12 t-54.5 -2q-29 2 -56.5 9t-54.5 18h-2l-2 2h-2q-41 20 -77 50t-60 69q-25 37 -39.5 81.5t-14.5 94.5q0 68 26 126t71 103q43 43 102.5 68.5t124.5 25.5q68 0 126 -25.5t103 -68.5q43 -45 69 -103.5t26 -125.5q0 -20 -13 -35q-14 -14 -34 -15q-8 0 -15.5 9.5t-7.5 25.5 q0 4 1 7.5t1 7.5q0 53 -20.5 99t-55.5 81t-81 54.5t-99 19.5t-99 -19.5t-80 -54.5t-54.5 -81t-20.5 -99t20.5 -99.5t54.5 -81t80 -54t99 -19.5q16 0 37.5 3t38.5 7q43 -43 92 -67.5t109 -24.5q70 0 130 26.5t107 71.5q47 47 72.5 107.5t25.5 130.5q0 127 -47 237.5 t-133 194.5q-84 84 -193.5 132t-238.5 48q-127 0 -237.5 -48t-194.5 -132t-132 -194.5t-48 -237.5z" />
<glyph unicode="A" horiz-adv-x="1267" d="M-16 0v1718h1298v-1718h-1298zM25 233h307l172 492h235l170 -492h310l-441 1270h-313z" />
<glyph unicode="B" horiz-adv-x="849" d="M-12 0v1718h884v-1718h-884zM63 233h390h8q70 0 131 27t106 72t72 106.5t27 130.5q0 98 -50.5 177t-130.5 122q80 41 130.5 121t50.5 178q0 70 -27 130.5t-72 106.5t-106.5 72.5t-130.5 26.5h-8h-390v-1270z" />
<glyph unicode="C" horiz-adv-x="1083" d="M-18 0v1718h1118v-1718h-1118zM55 735q2 -100 39 -189t103 -161q145 -152 350 -152h2q100 0 189 39t161 113q68 72 104.5 164t36.5 194h-286q0 -47 -16.5 -87t-44 -70.5t-65.5 -48t-81 -17.5t-80 17.5t-64.5 48t-44 70.5t-16.5 87v250q0 45 16.5 86t44 72t64.5 48.5 t80 17.5t81 -17.5t65.5 -48.5t44 -72t16.5 -86h286q0 102 -36.5 194.5t-104.5 164.5q-145 152 -350 151h-2q-205 0 -350 -151q-68 -72 -104 -163t-38 -192v-262z" />
<glyph unicode="D" horiz-adv-x="1087" d="M-4 -2v1718h1108v-1718h-1108zM117 231h256h39q117 6 223 53.5t192 131.5q92 92 139.5 206.5t47.5 243.5t-47 244t-140 205q-92 92 -208.5 139t-245.5 47h-256v-1270z" />
<glyph unicode="E" horiz-adv-x="903" d="M-16 0v1718h938v-1718h-938zM59 233h779v287h-492v205h363v287h-363v205h492v286h-779v-1270z" />
<glyph unicode="F" horiz-adv-x="937" d="M-6 0v1718h962v-1718h-962zM100 233h287v492h363v287h-363v205h492v286h-779v-1270z" />
<glyph unicode="G" horiz-adv-x="1069" d="M-10 0v1718h1085v-1718h-1085zM27 735q2 -100 38.5 -189t102.5 -161q145 -152 350 -152h2q59 0 115.5 17.5t109.5 48.5v-66h265v478q0 10 1 17t1 15v123h-494v-264h160q-29 -39 -70 -60.5t-90 -21.5q-43 0 -80 17.5t-64.5 48t-44 70.5t-16.5 87v250q0 45 16.5 86t44 72 t64.5 48.5t80 17.5t81 -17.5t65.5 -48.5t44 -72t16.5 -86h287q0 102 -37 194.5t-105 164.5q-72 74 -162 112.5t-188 38.5h-2q-205 0 -350 -151q-68 -72 -103.5 -163t-37.5 -192v-262z" />
<glyph unicode="H" horiz-adv-x="1056" d="M-12 0v1718h1081v-1718h-1081zM57 233h287v492h340v-492h287v1270h-287v-491h-340v491h-287v-1270z" />
<glyph unicode="I" horiz-adv-x="450" d="M-27 0v1718h490v-1718h-490zM72 233h286v1270h-286v-1270z" />
<glyph unicode="J" horiz-adv-x="878" d="M-16 0v1718h911v-1718h-911zM33 627q0 -82 30.5 -154t84 -125t125 -84t153.5 -31q80 0 150.5 31t124 83t85 123t33.5 151v882h-287v-876q0 -45 -31.5 -76t-74.5 -31q-45 0 -76 31t-31 76h-286z" />
<glyph unicode="K" horiz-adv-x="978" d="M-12 0v1718h1013v-1718h-1013zM59 233h287v359l324 -359h286l-540 633l542 637h-286l-326 -364v364h-287v-1270z" />
<glyph unicode="L" horiz-adv-x="835" d="M-16 0v1718h876v-1718h-876zM86 233h692v287h-405v983h-287v-1270z" />
<glyph unicode="M" horiz-adv-x="1339" d="M-16 0v1718h1368v-1718h-1368zM78 233h287v457l157 -457h287l154 443v-443h286v1268l2 2h-288v-2l-297 -856l-297 858h-291v-1270z" />
<glyph unicode="N" horiz-adv-x="1062" d="M-18 0v1718h1103v-1718h-1103zM66 233h286v709l359 -709h290v1270h-286v-708l-357 708h-292v-1270z" />
<glyph unicode="O" horiz-adv-x="1110" d="M-14 0v1718h1140v-1718h-1140zM68 737q2 -100 37.5 -191t103.5 -163q72 -72 161 -112t189 -40h2q98 0 188.5 40t159.5 112q68 72 105 163t37 191h2v103v157v39q-8 90 -45 170t-99 144q-70 74 -160 113.5t-188 39.5h-2q-100 0 -190 -40t-160 -113q-61 -66 -97 -146 t-44 -170v-297z" />
<glyph unicode="P" horiz-adv-x="907" d="M-8 0v1718h930v-1718h-930zM72 233h286v482h99h2q82 0 153.5 30.5t126 84t85 125t30.5 153.5t-30.5 153.5t-85 126t-126 85t-153.5 30.5h-2h-385v-1270z" />
<glyph unicode="Q" horiz-adv-x="1181" d="M-14 0v1718h1202v-1718h-1202zM49 737q0 -100 37 -191t104 -163q70 -72 160 -112t191 -40q70 0 133 19.5t121 54.5l41 -72h307l-158 291q47 100 47 213v103v157v39q-6 90 -43 170t-98 144q-70 74 -160 113.5t-190 39.5t-190.5 -40t-160.5 -113q-61 -66 -98 -146t-43 -170 v-297z" />
<glyph unicode="R" horiz-adv-x="925" d="M-27 0v1718h961v-1718h-961zM61 233h287v482h2l221 -482h297l-241 525q98 47 157.5 140t59.5 210q0 82 -32 153.5t-85 126t-125 85t-153 30.5h-3h-385v-1270z" />
<glyph unicode="S" horiz-adv-x="892" d="M-27 -2v1718h951v-1718h-951zM31 625q0 -82 30.5 -154t84 -125t125 -84t153.5 -31q66 0 126 20.5t109.5 57.5t85 88.5t54.5 110.5q16 59 16 117q0 80 -30.5 150.5t-84 122.5t-125 82t-151.5 30q-45 0 -76 27.5t-31 70.5q0 10 5 31q10 33 38.5 53t63.5 20q43 0 73.5 -30.5 t30.5 -73.5h287q0 80 -30.5 151.5t-84 126t-125 85t-151.5 30.5q-66 0 -126 -20.5t-109.5 -57.5t-85 -88t-54.5 -110q-18 -55 -18 -117q0 -82 31.5 -151.5t85 -122t124 -82t152.5 -29.5q43 0 73.5 -27.5t30.5 -72.5q0 -10 -4 -31q-10 -33 -37.5 -53.5t-62.5 -20.5 q-45 0 -76 31t-31 76h-286z" />
<glyph unicode="T" horiz-adv-x="972" d="M-27 -2v1718h1010v-1718h-1010zM43 1214h289v-983h286v983h289v287h-864v-287z" />
<glyph unicode="U" horiz-adv-x="1087" d="M-25 -2v1718h1145v-1718h-1145zM53 735q2 -100 38 -191t104 -163q72 -72 160.5 -112t189.5 -40h2q100 0 189 40t161 112q68 72 103.5 163t37.5 191v766h-286v-760q0 -47 -16.5 -88t-44 -71.5t-64.5 -48t-80 -17.5t-81 17.5t-65.5 48t-44 71.5t-16.5 88v760h-287v-766z " />
<glyph unicode="V" horiz-adv-x="1249" d="M-16 0v1718h1288v-1718h-1288zM37 1503l440 -1270h291l440 1270h-286l-299 -864l-299 864h-287z" />
<glyph unicode="W" horiz-adv-x="1613" d="M-8 0v1718h1632v-1718h-1632zM37 1503l309 -1270h291l168 689l168 -689h291l309 1270h-287l-168 -690l-168 690h-291l-167 -690l-168 690h-287z" />
<glyph unicode="X" horiz-adv-x="1099" d="M-18 0v1718h1130v-1718h-1130zM63 233h287l199 369l196 -369h287l-340 635l340 635h-287l-196 -368l-199 368h-287l343 -635z" />
<glyph unicode="Y" horiz-adv-x="1081" d="M-23 0v1718h1123v-1718h-1123zM51 1503l342 -635v-635h287v633l342 637h-287l-198 -368l-199 368h-287z" />
<glyph unicode="Z" horiz-adv-x="950" d="M-18 0v1718h983v-1718h-983zM55 233h826v287h-496l496 697v286h-826v-286h492l-492 -697v-287z" />
<glyph unicode="_" horiz-adv-x="1030" d="M-20 0v1720h1071v-1720h-1071z" />
<glyph unicode="`" horiz-adv-x="428" d="M-14 0v1720h456v-1720h-456zM78 1212h106l-88 -153h168l88 153v277h-274v-277z" />
<glyph unicode="a" horiz-adv-x="1267" d="M-16 0v1718h1298v-1718h-1298zM25 233h307l172 492h235l170 -492h310l-441 1270h-313z" />
<glyph unicode="b" horiz-adv-x="849" d="M-12 0v1718h884v-1718h-884zM63 233h390h8q70 0 131 27t106 72t72 106.5t27 130.5q0 98 -50.5 177t-130.5 122q80 41 130.5 121t50.5 178q0 70 -27 130.5t-72 106.5t-106.5 72.5t-130.5 26.5h-8h-390v-1270z" />
<glyph unicode="c" horiz-adv-x="1083" d="M-18 0v1718h1118v-1718h-1118zM55 735q2 -100 39 -189t103 -161q145 -152 350 -152h2q100 0 189 39t161 113q68 72 104.5 164t36.5 194h-286q0 -47 -16.5 -87t-44 -70.5t-65.5 -48t-81 -17.5t-80 17.5t-64.5 48t-44 70.5t-16.5 87v250q0 45 16.5 86t44 72t64.5 48.5 t80 17.5t81 -17.5t65.5 -48.5t44 -72t16.5 -86h286q0 102 -36.5 194.5t-104.5 164.5q-145 152 -350 151h-2q-205 0 -350 -151q-68 -72 -104 -163t-38 -192v-262z" />
<glyph unicode="d" horiz-adv-x="1087" d="M-4 -2v1718h1108v-1718h-1108zM117 231h256h39q117 6 223 53.5t192 131.5q92 92 139.5 206.5t47.5 243.5t-47 244t-140 205q-92 92 -208.5 139t-245.5 47h-256v-1270z" />
<glyph unicode="e" horiz-adv-x="903" d="M-16 0v1718h938v-1718h-938zM59 233h779v287h-492v205h363v287h-363v205h492v286h-779v-1270z" />
<glyph unicode="f" horiz-adv-x="937" d="M-6 0v1718h962v-1718h-962zM100 233h287v492h363v287h-363v205h492v286h-779v-1270z" />
<glyph unicode="g" horiz-adv-x="1069" d="M-10 0v1718h1085v-1718h-1085zM27 735q2 -100 38.5 -189t102.5 -161q145 -152 350 -152h2q59 0 115.5 17.5t109.5 48.5v-66h265v478q0 10 1 17t1 15v123h-494v-264h160q-29 -39 -70 -60.5t-90 -21.5q-43 0 -80 17.5t-64.5 48t-44 70.5t-16.5 87v250q0 45 16.5 86t44 72 t64.5 48.5t80 17.5t81 -17.5t65.5 -48.5t44 -72t16.5 -86h287q0 102 -37 194.5t-105 164.5q-72 74 -162 112.5t-188 38.5h-2q-205 0 -350 -151q-68 -72 -103.5 -163t-37.5 -192v-262z" />
<glyph unicode="h" horiz-adv-x="1056" d="M-12 0v1718h1081v-1718h-1081zM57 233h287v492h340v-492h287v1270h-287v-491h-340v491h-287v-1270z" />
<glyph unicode="i" horiz-adv-x="450" d="M-27 0v1718h490v-1718h-490zM72 233h286v1270h-286v-1270z" />
<glyph unicode="j" horiz-adv-x="878" d="M-16 0v1718h911v-1718h-911zM33 627q0 -82 30.5 -154t84 -125t125 -84t153.5 -31q80 0 150.5 31t124 83t85 123t33.5 151v882h-287v-876q0 -45 -31.5 -76t-74.5 -31q-45 0 -76 31t-31 76h-286z" />
<glyph unicode="k" horiz-adv-x="978" d="M-12 0v1718h1013v-1718h-1013zM59 233h287v359l324 -359h286l-540 633l542 637h-286l-326 -364v364h-287v-1270z" />
<glyph unicode="l" horiz-adv-x="835" d="M-16 0v1718h876v-1718h-876zM86 233h692v287h-405v983h-287v-1270z" />
<glyph unicode="m" horiz-adv-x="1339" d="M-16 0v1718h1368v-1718h-1368zM78 233h287v457l157 -457h287l154 443v-443h286v1268l2 2h-288v-2l-297 -856l-297 858h-291v-1270z" />
<glyph unicode="n" horiz-adv-x="1062" d="M-18 0v1718h1103v-1718h-1103zM66 233h286v709l359 -709h290v1270h-286v-708l-357 708h-292v-1270z" />
<glyph unicode="o" horiz-adv-x="1110" d="M-14 0v1718h1140v-1718h-1140zM68 737q2 -100 37.5 -191t103.5 -163q72 -72 161 -112t189 -40h2q98 0 188.5 40t159.5 112q68 72 105 163t37 191h2v103v157v39q-8 90 -45 170t-99 144q-70 74 -160 113.5t-188 39.5h-2q-100 0 -190 -40t-160 -113q-61 -66 -97 -146 t-44 -170v-297z" />
<glyph unicode="p" horiz-adv-x="907" d="M-8 0v1718h930v-1718h-930zM72 233h286v482h99h2q82 0 153.5 30.5t126 84t85 125t30.5 153.5t-30.5 153.5t-85 126t-126 85t-153.5 30.5h-2h-385v-1270z" />
<glyph unicode="q" horiz-adv-x="1181" d="M-14 0v1718h1202v-1718h-1202zM49 737q0 -100 37 -191t104 -163q70 -72 160 -112t191 -40q70 0 133 19.5t121 54.5l41 -72h307l-158 291q47 100 47 213v103v157v39q-6 90 -43 170t-98 144q-70 74 -160 113.5t-190 39.5t-190.5 -40t-160.5 -113q-61 -66 -98 -146t-43 -170 v-297z" />
<glyph unicode="r" horiz-adv-x="925" d="M-27 0v1718h961v-1718h-961zM61 233h287v482h2l221 -482h297l-241 525q98 47 157.5 140t59.5 210q0 82 -32 153.5t-85 126t-125 85t-153 30.5h-3h-385v-1270z" />
<glyph unicode="s" horiz-adv-x="892" d="M-27 -2v1718h951v-1718h-951zM31 625q0 -82 30.5 -154t84 -125t125 -84t153.5 -31q66 0 126 20.5t109.5 57.5t85 88.5t54.5 110.5q16 59 16 117q0 80 -30.5 150.5t-84 122.5t-125 82t-151.5 30q-45 0 -76 27.5t-31 70.5q0 10 5 31q10 33 38.5 53t63.5 20q43 0 73.5 -30.5 t30.5 -73.5h287q0 80 -30.5 151.5t-84 126t-125 85t-151.5 30.5q-66 0 -126 -20.5t-109.5 -57.5t-85 -88t-54.5 -110q-18 -55 -18 -117q0 -82 31.5 -151.5t85 -122t124 -82t152.5 -29.5q43 0 73.5 -27.5t30.5 -72.5q0 -10 -4 -31q-10 -33 -37.5 -53.5t-62.5 -20.5 q-45 0 -76 31t-31 76h-286z" />
<glyph unicode="t" horiz-adv-x="972" d="M-27 -2v1718h1010v-1718h-1010zM43 1214h289v-983h286v983h289v287h-864v-287z" />
<glyph unicode="u" horiz-adv-x="1087" d="M-25 -2v1718h1145v-1718h-1145zM53 735q2 -100 38 -191t104 -163q72 -72 160.5 -112t189.5 -40h2q100 0 189 40t161 112q68 72 103.5 163t37.5 191v766h-286v-760q0 -47 -16.5 -88t-44 -71.5t-64.5 -48t-80 -17.5t-81 17.5t-65.5 48t-44 71.5t-16.5 88v760h-287v-766z " />
<glyph unicode="v" horiz-adv-x="1249" d="M-16 0v1718h1288v-1718h-1288zM37 1503l440 -1270h291l440 1270h-286l-299 -864l-299 864h-287z" />
<glyph unicode="w" horiz-adv-x="1613" d="M-8 0v1718h1632v-1718h-1632zM37 1503l309 -1270h291l168 689l168 -689h291l309 1270h-287l-168 -690l-168 690h-291l-167 -690l-168 690h-287z" />
<glyph unicode="x" horiz-adv-x="1099" d="M-18 0v1718h1130v-1718h-1130zM63 233h287l199 369l196 -369h287l-340 635l340 635h-287l-196 -368l-199 368h-287l343 -635z" />
<glyph unicode="y" horiz-adv-x="1081" d="M-23 0v1718h1123v-1718h-1123zM51 1503l342 -635v-635h287v633l342 637h-287l-198 -368l-199 368h-287z" />
<glyph unicode="z" horiz-adv-x="950" d="M-18 0v1718h983v-1718h-983zM55 233h826v287h-496l496 697v286h-826v-286h492l-492 -697v-287z" />
<glyph unicode="&#xad;" d="M-39 0v1720h1071v-1720h-1071zM68 752h852v276h-852v-276z" />
<glyph unicode="&#x2000;" horiz-adv-x="860" />
<glyph unicode="&#x2001;" horiz-adv-x="1720" />
<glyph unicode="&#x2002;" horiz-adv-x="860" />
<glyph unicode="&#x2003;" horiz-adv-x="1720" />
<glyph unicode="&#x2004;" horiz-adv-x="573" />
<glyph unicode="&#x2005;" horiz-adv-x="430" />
<glyph unicode="&#x2006;" horiz-adv-x="286" />
<glyph unicode="&#x2007;" horiz-adv-x="286" />
<glyph unicode="&#x2008;" horiz-adv-x="215" />
<glyph unicode="&#x2009;" horiz-adv-x="344" />
<glyph unicode="&#x200a;" horiz-adv-x="94" />
<glyph unicode="&#x2010;" d="M-39 0v1720h1071v-1720h-1071zM68 752h852v276h-852v-276z" />
<glyph unicode="&#x2011;" d="M-39 0v1720h1071v-1720h-1071zM68 752h852v276h-852v-276z" />
<glyph unicode="&#x2012;" d="M-39 0v1720h1071v-1720h-1071zM68 752h852v276h-852v-276z" />
<glyph unicode="&#x2013;" horiz-adv-x="1024" d="M-39 0v1720h1090v-1720h-1090z" />
<glyph unicode="&#x2014;" horiz-adv-x="2048" d="M-39 0v1720h2114v-1720h-2114z" />
<glyph unicode="&#x2018;" horiz-adv-x="428" d="M-14 0v1720h456v-1720h-456zM78 1212h106l-88 -153h168l88 153v277h-274v-277z" />
<glyph unicode="&#x2019;" horiz-adv-x="428" d="M-14 0v1720h456v-1720h-456zM78 1212h106l-88 -153h168l88 153v277h-274v-277z" />
<glyph unicode="&#x2026;" horiz-adv-x="1284" d="M842 0v1720h456v-1720h-456zM934 264h274v277h-274v-277zM414 0v1720h456v-1720h-456zM506 264h274v277h-274v-277zM-14 0v1720h456v-1720h-456zM78 264h274v277h-274v-277z" />
<glyph unicode="&#x202f;" horiz-adv-x="344" />
<glyph unicode="&#x205f;" horiz-adv-x="430" />
<glyph unicode="&#x2122;" horiz-adv-x="2312" d="M957 0v1718h1368v-1718h-1368zM1051 233h287v457l157 -457h287l154 443v-443h286v1268l2 2h-288v-2l-297 -856l-297 858h-291v-1270zM-27 -2v1718h1010v-1718h-1010zM43 1214h289v-983h286v983h289v287h-864v-287z" />
<glyph unicode="&#xe000;" horiz-adv-x="1720" d="M0 1720h1720v-1720h-1720v1720z" />
<glyph unicode="&#xfb01;" horiz-adv-x="1388" d="M911 0v1718h490v-1718h-490zM1010 233h286v1270h-286v-1270zM-6 0v1718h962v-1718h-962zM100 233h287v492h363v287h-363v205h492v286h-779v-1270z" />
<glyph unicode="&#xfb02;" horiz-adv-x="1773" d="M922 0v1718h876v-1718h-876zM1024 233h692v287h-405v983h-287v-1270zM-6 0v1718h962v-1718h-962zM100 233h287v492h363v287h-363v205h492v286h-779v-1270z" />
<glyph unicode="&#xfb03;" horiz-adv-x="2326" d="M1849 0v1718h490v-1718h-490zM1948 233h286v1270h-286v-1270zM932 0v1718h962v-1718h-962zM1038 233h287v492h363v287h-363v205h492v286h-779v-1270zM-6 0v1718h962v-1718h-962zM100 233h287v492h363v287h-363v205h492v286h-779v-1270z" />
<glyph unicode="&#xfb04;" horiz-adv-x="2711" d="M1860 0v1718h876v-1718h-876zM1962 233h692v287h-405v983h-287v-1270zM932 0v1718h962v-1718h-962zM1038 233h287v492h363v287h-363v205h492v286h-779v-1270zM-6 0v1718h962v-1718h-962zM100 233h287v492h363v287h-363v205h492v286h-779v-1270z" />
</font>
</defs>
</svg>
