<?xml version="1.0" standalone="no"?>
<!DOCTYPE svg PUBLIC "-//W3C//DTD SVG 1.1//EN" "http://www.w3.org/Graphics/SVG/1.1/DTD/svg11.dtd" >
<svg xmlns="http://www.w3.org/2000/svg">
<metadata>
This is a custom SVG webfont generated by Font Squirrel.
Copyright   : Copyright c  2008 All rights reserved
Designer    : Tyler Finck
Foundry     : SURSLY  Tyler Finck
Foundry URL : httpwwwsurslycom
</metadata>
<defs>
<font id="webfontVDQbtLmu" horiz-adv-x="1069" >
<font-face units-per-em="2048" ascent="1638" descent="-410" />
<missing-glyph horiz-adv-x="1024" />
<glyph unicode=" "  horiz-adv-x="1024" />
<glyph unicode="&#x09;" horiz-adv-x="1024" />
<glyph unicode="&#xa0;" horiz-adv-x="1024" />
<glyph unicode="!" horiz-adv-x="481" d="M6 465v1059h344v-1059h-344zM8 0v344h342v-344h-342z" />
<glyph unicode="$" horiz-adv-x="929" d="M2 537h340q0 -29 20.5 -49.5t49.5 -20.5t49 20.5t20 49.5q0 27 -16 45t-41 22h-12q-84 0 -159 33t-130 88t-88 130t-33 159q0 131 71.5 233.5t186.5 149.5v137h344v-156q98 -53 157.5 -149t59.5 -215h-340q0 29 -20.5 50t-48.5 21q-29 0 -49.5 -21.5t-20.5 -49.5 q0 -25 16.5 -44.5t40.5 -23.5h13q84 0 158.5 -32.5t130 -88t88 -130t32.5 -158.5q0 -119 -59.5 -214.5t-157.5 -148.5v-174h-344v156q-57 23 -104 60.5t-81 87.5t-53.5 110t-19.5 123z" />
<glyph unicode="%" horiz-adv-x="1550" d="M2 1026q0 51 19.5 96t53.5 79t79 53.5t96 19.5t95 -19.5t78 -53.5t53.5 -79t19.5 -96t-19.5 -96t-53.5 -79t-78 -53.5t-95 -19.5t-96 19.5t-79 53.5t-53.5 79t-19.5 96zM90 0l895 1524h344l-895 -1524h-344zM965 526q0 51 19.5 95.5t53 78t78.5 53t96 19.5t96.5 -19.5 t79 -53t53 -77.5t19.5 -96q0 -51 -19.5 -96t-53 -79t-78.5 -53t-97 -19q-51 0 -96 19t-78.5 53t-53 79t-19.5 96z" />
<glyph unicode="&#x26;" horiz-adv-x="1435" d="M0 508q0 133 61.5 243.5t163.5 178.5q-35 47 -53 101t-18 116q0 74 27.5 138.5t76.5 112.5t113.5 75.5t138.5 27.5t138.5 -27.5t112.5 -75.5t75.5 -112.5t27.5 -138.5q0 -104 -54 -189.5t-142 -128.5l231 -233l201 199l203 -205l-199 -197l188 -190l-211 -211l-186 186 q-72 -82 -170 -130t-215 -48q-104 0 -197.5 40t-163 108.5t-109.5 162t-40 197.5z" />
<glyph unicode="'" horiz-adv-x="485" d="M-2 1180v344h342v-344l-109 -191h-208l108 191h-133z" />
<glyph unicode="*" horiz-adv-x="894" d="M-37 1253l57 217l234 -61v213h225v-215l238 63l57 -217l-203 -55l144 -143l-158 -160l-188 188l-191 -192l-160 158l150 149z" />
<glyph unicode="+" horiz-adv-x="1204" d="M0 614v344h358v357h344v-357h359v-344h-359v-358h-344v358h-358z" />
<glyph unicode="," horiz-adv-x="477" d="M2 0v344h342v-344l-108 -190h-211l108 190h-131z" />
<glyph unicode="-" horiz-adv-x="1200" d="M0 616v345h1059v-345h-1059z" />
<glyph unicode="." horiz-adv-x="468" d="M0 0v344h342v-344h-342z" />
<glyph unicode="0" horiz-adv-x="1038" d="M0 446v609q0 96 37 182t101.5 149.5t149.5 100.5t183 37q96 0 181 -37t148.5 -100.5t100.5 -149.5t37 -182v-2h2h-2q0 -12 1 -25.5t1 -23.5v-486q0 -10 -1 -22.5t-1 -24.5v-2l2 -2h-2q0 -96 -37 -181t-100.5 -148.5t-148.5 -100.5t-181 -37q-94 0 -180 37t-150.5 99.5 t-102.5 143t-38 166.5z" />
<glyph unicode="1" horiz-adv-x="671" d="M-92 1210l299 314h344v-1524h-344v1024l-55 -57z" />
<glyph unicode="2" horiz-adv-x="1046" d="M-14 1053q0 96 36.5 182t101 150.5t150.5 101.5t183 37q80 0 151.5 -24.5t131 -69t102.5 -105.5t65 -133q20 -63 21 -139q0 -98 -36 -178t-101 -150l-340 -381h473v-344h-916v344l557 643q18 29 19 66q0 16 -4 37q-12 39 -46 64.5t-77 25.5q-53 0 -90 -37t-37 -90h-344z " />
<glyph unicode="3" horiz-adv-x="1032" d="M0 473h344q0 -53 37 -91t90 -38q43 0 76 25.5t45 64.5q6 16 6 37q0 53 -37 86t-90 33h-217v344h217q53 0 90 32.5t37 86.5q0 23 -6 37q-12 39 -45 64.5t-76 25.5q-53 0 -90 -37t-37 -90h-344q0 96 37 182t101.5 150.5t149.5 101.5t183 37q80 0 151.5 -24.5t131 -69 t102.5 -105.5t66 -133q20 -63 20 -139q0 -84 -27.5 -158t-76.5 -133q49 -59 76.5 -132t27.5 -157q0 -78 -20 -141q-23 -72 -66 -133.5t-102.5 -105.5t-131 -68.5t-151.5 -24.5q-98 0 -183 37t-149.5 101.5t-101.5 150.5t-37 184z" />
<glyph unicode="4" horiz-adv-x="1105" d="M-16 590v344l501 586v4h344v-590h185v-344h-185v-590h-344v590h-501z" />
<glyph unicode="5" horiz-adv-x="1042" d="M-2 1176v344h915v-344h-569v-134q31 8 61.5 12.5t65.5 4.5q113 0 200 -36t147.5 -93.5t92 -131t31.5 -147.5v-57v-6v-117q0 -98 -37 -184t-101.5 -150.5t-150.5 -101.5t-182 -37q-98 0 -183 37t-149.5 101.5t-101.5 150.5t-37 184h344q0 -53 37 -91t90 -38t94 38t41 91 v117q0 49 -35.5 88t-99.5 39q-53 0 -90 -37t-37 -90h-344v588h-2z" />
<glyph unicode="6" horiz-adv-x="1046" d="M0 455v626q0 90 39 171t103.5 142.5t150.5 98.5t180 37q96 0 182 -37t150.5 -101.5t101.5 -150.5t37 -184h-344q0 53 -37 91t-90 38t-90 -38t-37 -91h-2v-135q61 18 129 18q96 0 182 -37t149.5 -100.5t101.5 -149.5t38 -182v-2q0 -98 -38 -183t-101.5 -149.5 t-149.5 -101.5t-182 -37t-182 36t-150.5 98.5t-102.5 145.5t-38 177z" />
<glyph unicode="7" horiz-adv-x="1064" d="M-10 0l635 1180h-623v344h807h20h142v-344l-637 -1180h-344z" />
<glyph unicode="8" horiz-adv-x="1034" d="M0 469v2q0 86 28.5 158.5t77.5 132.5q-49 59 -77.5 132t-28.5 159v2q0 96 38 182t101.5 149.5t149.5 100.5t182 37t182 -37t149.5 -100.5t101.5 -149.5t38 -182v-2q0 -86 -28.5 -159t-77.5 -132q49 -59 77.5 -132t28.5 -159v-2q0 -96 -38 -182t-101.5 -149.5 t-149.5 -100.5t-182 -37t-182 37t-149.5 100.5t-101.5 149.5t-38 182z" />
<glyph unicode="9" horiz-adv-x="1046" d="M2 471h344q0 -53 37 -91t90 -38t90 38t37 91v135q-61 -18 -127 -18q-98 0 -183 37t-149.5 100t-101.5 149.5t-37 182.5v2q0 98 37 183t101.5 149.5t149.5 101.5t183 37q96 0 181 -36t149.5 -98.5t102.5 -145.5t38 -177v-627q0 -88 -38 -169.5t-102.5 -143t-150.5 -98.5 t-180 -37q-98 0 -183 37t-149.5 101.5t-101.5 150.5t-37 184z" />
<glyph unicode=":" horiz-adv-x="536" d="M0 270v344h342v-344h-342zM0 952v344h342v-344h-342z" />
<glyph unicode=";" horiz-adv-x="501" d="M0 274v344h340v-344l-109 -190h-208l108 190h-131zM0 956v344h340v-344h-340z" />
<glyph unicode="=" horiz-adv-x="1224" d="M0 274v344h1059v-344h-1059zM0 987v344h1059v-344h-1059z" />
<glyph unicode="?" horiz-adv-x="1034" d="M-18 1049q0 98 38.5 183t104 149.5t154 102.5t188.5 38h2q98 0 183 -38t149.5 -102.5t101.5 -149.5t37 -183q0 -92 -30.5 -161t-76 -121t-98.5 -89t-100 -66q-27 -18 -54.5 -31.5t-39.5 -33.5q-6 -10 -9 -23l-4 -24q-2 -14 0 -29h-340v61q0 76 27 133.5t67 101.5t87 76 l86 56l68 46q28 19 44.5 36.5t23.5 33t7 34.5q0 53 -38 92t-91 39q-61 0 -104 -39t-43 -92h-340zM188 0v344h342v-344h-342z" />
<glyph unicode="@" horiz-adv-x="1599" d="M2 760q0 158 59.5 296t163 241.5t241.5 163t294 59.5q158 0 296 -59.5t241.5 -163t164 -241.5t60.5 -296h-361q0 84 -31.5 156.5t-86 127t-127 86t-156.5 31.5q-82 0 -156 -31.5t-128 -86t-86 -127t-32 -156.5q0 -123 65.5 -220.5t170.5 -144.5q2 -2 4 -2t3 -1t3 -1 q133 -57 273 -16l270 -271q-90 -53 -187.5 -78.5t-199.5 -25.5q-74 0 -145.5 14.5t-137.5 40.5q-4 0 -8 4h-4q-133 55 -242 164q-10 10 -19 21.5t-20 21.5q-86 98 -134 225.5t-48 268.5zM444 760q0 66 25 123t68 100t100 68.5t123 25.5t124 -25.5t101 -68.5t67.5 -100.5 t24.5 -122.5v-17q4 -23 13.5 -33t13.5 -10v-358q-74 0 -141.5 28.5t-120.5 82.5q-20 -4 -40 -7.5t-42 -3.5q-66 0 -123 26t-100 69t-68 100t-25 123zM1104 342v358q25 0 41 17.5t16 42.5h361q0 -86 -33 -163t-90.5 -133t-133 -89t-161.5 -33z" />
<glyph unicode="A" horiz-adv-x="1478" d="M-59 0l528 1524h377l528 -1524h-370l-205 590h-283l-205 -590h-370z" />
<glyph unicode="B" horiz-adv-x="1013" d="M0 -2v1524h467h10q84 0 158 -32t128 -86t86 -128t32 -158q0 -117 -59.5 -212t-157.5 -146q98 -51 157.5 -146.5t59.5 -212.5q0 -84 -32 -157.5t-86 -128t-128 -86t-158 -31.5h-10h-467z" />
<glyph unicode="C" horiz-adv-x="1275" d="M-23 600v315q2 123 45.5 231.5t124.5 194.5q86 88 192.5 135.5t227.5 47.5h2q121 0 228.5 -47t191.5 -136q84 -88 127 -198.5t43 -233.5h-344q0 55 -19.5 104.5t-53 86.5t-77.5 58.5t-96 21.5q-51 0 -96 -21.5t-79 -58.5t-53 -86t-19 -105v-297q0 -55 19 -104t53 -86 t79 -58.5t96 -21.5t95.5 21.5t78 58.5t53 86t19.5 104h344q0 -123 -43 -233.5t-127 -198.5t-191.5 -135t-228.5 -47h-2q-121 0 -227.5 47t-192.5 135q-80 86 -124 193.5t-46 226.5z" />
<glyph unicode="D" horiz-adv-x="1189" d="M0 0v1524h307q154 0 294 -56.5t251 -164.5q111 -111 168 -249.5t57 -291.5q0 -154 -57 -292t-168 -249q-102 -100 -230 -156.5t-270 -64.5h-45h-307z" />
<glyph unicode="E" d="M0 0v1524h934v-344h-590v-246h434v-344h-434v-246h590v-344h-934z" />
<glyph unicode="F" d="M2 0v1524h934v-344h-590v-246h434v-344h-434v-590h-344z" />
<glyph unicode="G" horiz-adv-x="1331" d="M-16 600v315q0 123 44 231.5t126 194.5q84 88 191.5 135.5t227.5 47.5h2q119 0 226.5 -47t193.5 -136q82 -88 126 -198.5t44 -233.5h-344q0 55 -19.5 104.5t-53 86.5t-78.5 58.5t-97 21.5q-51 0 -95 -21.5t-77.5 -58.5t-53 -86t-19.5 -105v-297q0 -55 19.5 -104t53 -86 t77.5 -58.5t95 -21.5q59 0 107.5 26.5t83.5 71.5h-193v318h594v-146v-20q0 -10 -2 -21v-571h-317v78q-61 -37 -130 -58.5t-141 -21.5h-2q-121 0 -228 47t-191 135q-80 86 -124 193.5t-46 226.5z" />
<glyph unicode="H" horiz-adv-x="1257" d="M0 0v1524h344v-590h408v590h344v-1524h-344v590h-408v-590h-344z" />
<glyph unicode="I" horiz-adv-x="489" d="M0 0v1524h344v-1524h-344z" />
<glyph unicode="J" horiz-adv-x="1085" d="M0 473h344q0 -53 37 -91t90 -38t91 38t38 91v1051h344v-1059q-2 -96 -40 -181t-101.5 -147.5t-149.5 -99.5t-182 -37q-98 0 -183 37t-149.5 101.5t-101.5 150.5t-37 184z" />
<glyph unicode="K" horiz-adv-x="1148" d="M0 0v1524h344v-437l391 437h344l-649 -764l647 -760h-344l-389 432v-432h-344z" />
<glyph unicode="L" horiz-adv-x="882" d="M0 0v1524h344v-1180h408v-344h-752z" />
<glyph unicode="M" horiz-adv-x="1558" d="M2 0v1524h350l357 -1028l358 1028h344v-1524h-344v532l-186 -532h-344l-191 549v-549h-344z" />
<glyph unicode="N" horiz-adv-x="1236" d="M2 0v1524h350l428 -850v850h344v-1524h-348l-430 852v-852h-344z" />
<glyph unicode="O" horiz-adv-x="1308" d="M-2 606v357q10 109 54 205t116 173q86 88 192.5 135.5t227.5 47.5h2q121 0 228.5 -47t191.5 -136q74 -78 116.5 -174t53.5 -204v-45v-189v-123q-2 -121 -45 -229.5t-125 -194.5q-84 -90 -191.5 -137t-228.5 -47h-2q-119 0 -226.5 47t-193.5 135q-80 86 -124 194.5 t-46 231.5z" />
<glyph unicode="P" horiz-adv-x="1017" d="M0 0v1524h463h2q98 0 184 -37t150.5 -101.5t101.5 -150.5t37 -184t-37 -184.5t-101.5 -151t-150.5 -101t-184 -36.5h-2h-119v-578h-344z" />
<glyph unicode="Q" horiz-adv-x="1308" d="M0 606v357q8 109 52 205t118 173q84 88 191.5 135.5t228.5 47.5h2q119 0 226.5 -47t193.5 -136q72 -78 115.5 -174t54.5 -204v-45v-189v-123q-4 -139 -58 -256l189 -350h-369l-47 86q-141 -88 -305 -88h-2q-121 0 -228.5 47t-191.5 135q-82 86 -126 194.5t-44 231.5z" />
<glyph unicode="R" d="M0 0v1524h463h2q98 0 185 -37t151.5 -101.5t101.5 -150.5t37 -184q0 -139 -71.5 -251t-188.5 -171l289 -629h-355l-266 578h-4v-578h-344z" />
<glyph unicode="S" d="M0 473h344q0 -53 37 -91t90 -38q43 0 76 25.5t45 64.5q6 16 6 37q0 53 -37 86t-90 33q-98 0 -183 36t-149.5 98t-101.5 146t-37 183q0 35 5 69.5t15 69.5q23 72 66 133t102.5 105.5t131 69t151.5 24.5q98 0 183 -37t149.5 -101.5t101.5 -150.5t37 -182h-344q0 53 -37 90 t-90 37q-43 0 -76 -26t-45 -64q-6 -14 -6 -37q0 -53 37 -86t90 -33q98 0 183 -36t149.5 -98.5t101.5 -146.5t37 -180q0 -37 -5 -71.5t-15 -69.5q-23 -72 -66 -133.5t-102.5 -105.5t-131 -68.5t-151.5 -24.5q-98 0 -183 37t-149.5 101.5t-101.5 150.5t-37 184z" />
<glyph unicode="T" horiz-adv-x="1128" d="M-18 1180v344h1036v-344h-346v-1180h-344v1180h-346z" />
<glyph unicode="U" horiz-adv-x="1304" d="M2 608v918h344v-912q0 -55 19.5 -104t53.5 -86t79 -58.5t96 -21.5t95 21.5t78 58.5t53.5 86t19.5 104v912h344v-918q-2 -121 -45 -229.5t-125 -194.5q-84 -90 -191.5 -137t-228.5 -47h-2q-119 0 -226.5 47t-193.5 137q-80 86 -124 194.5t-46 229.5z" />
<glyph unicode="V" horiz-adv-x="1478" d="M10 1524h344l361 -1037l360 1037h344l-530 -1524h-348z" />
<glyph unicode="W" horiz-adv-x="1972" d="M4 1524h344l203 -828l201 828h350l201 -828l200 828h344l-370 -1524h-351l-200 827l-201 -827h-350z" />
<glyph unicode="X" horiz-adv-x="1292" d="M4 0l410 762l-410 762h344l238 -443l237 443h344l-409 -762l409 -762h-344l-237 442l-238 -442h-344z" />
<glyph unicode="Y" horiz-adv-x="1228" d="M-14 1524h344l239 -443l238 443h344l-410 -762v-762h-344v762z" />
<glyph unicode="Z" horiz-adv-x="1136" d="M0 0v344l592 836h-592v344h993v-344l-594 -836h594v-344h-993z" />
<glyph unicode="`" horiz-adv-x="485" d="M-2 1180v344h342v-344l-109 -191h-208l108 191h-133z" />
<glyph unicode="a" horiz-adv-x="1478" d="M-59 0l528 1524h377l528 -1524h-370l-205 590h-283l-205 -590h-370z" />
<glyph unicode="b" horiz-adv-x="1013" d="M0 -2v1524h467h10q84 0 158 -32t128 -86t86 -128t32 -158q0 -117 -59.5 -212t-157.5 -146q98 -51 157.5 -146.5t59.5 -212.5q0 -84 -32 -157.5t-86 -128t-128 -86t-158 -31.5h-10h-467z" />
<glyph unicode="c" horiz-adv-x="1275" d="M-23 600v315q2 123 45.5 231.5t124.5 194.5q86 88 192.5 135.5t227.5 47.5h2q121 0 228.5 -47t191.5 -136q84 -88 127 -198.5t43 -233.5h-344q0 55 -19.5 104.5t-53 86.5t-77.5 58.5t-96 21.5q-51 0 -96 -21.5t-79 -58.5t-53 -86t-19 -105v-297q0 -55 19 -104t53 -86 t79 -58.5t96 -21.5t95.5 21.5t78 58.5t53 86t19.5 104h344q0 -123 -43 -233.5t-127 -198.5t-191.5 -135t-228.5 -47h-2q-121 0 -227.5 47t-192.5 135q-80 86 -124 193.5t-46 226.5z" />
<glyph unicode="d" horiz-adv-x="1189" d="M0 0v1524h307q154 0 294 -56.5t251 -164.5q111 -111 168 -249.5t57 -291.5q0 -154 -57 -292t-168 -249q-102 -100 -230 -156.5t-270 -64.5h-45h-307z" />
<glyph unicode="e" d="M0 0v1524h934v-344h-590v-246h434v-344h-434v-246h590v-344h-934z" />
<glyph unicode="f" d="M2 0v1524h934v-344h-590v-246h434v-344h-434v-590h-344z" />
<glyph unicode="g" horiz-adv-x="1331" d="M-16 600v315q0 123 44 231.5t126 194.5q84 88 191.5 135.5t227.5 47.5h2q119 0 226.5 -47t193.5 -136q82 -88 126 -198.5t44 -233.5h-344q0 55 -19.5 104.5t-53 86.5t-78.5 58.5t-97 21.5q-51 0 -95 -21.5t-77.5 -58.5t-53 -86t-19.5 -105v-297q0 -55 19.5 -104t53 -86 t77.5 -58.5t95 -21.5q59 0 107.5 26.5t83.5 71.5h-193v318h594v-146v-20q0 -10 -2 -21v-571h-317v78q-61 -37 -130 -58.5t-141 -21.5h-2q-121 0 -228 47t-191 135q-80 86 -124 193.5t-46 226.5z" />
<glyph unicode="h" horiz-adv-x="1257" d="M0 0v1524h344v-590h408v590h344v-1524h-344v590h-408v-590h-344z" />
<glyph unicode="i" horiz-adv-x="489" d="M0 0v1524h344v-1524h-344z" />
<glyph unicode="j" horiz-adv-x="1085" d="M0 473h344q0 -53 37 -91t90 -38t91 38t38 91v1051h344v-1059q-2 -96 -40 -181t-101.5 -147.5t-149.5 -99.5t-182 -37q-98 0 -183 37t-149.5 101.5t-101.5 150.5t-37 184z" />
<glyph unicode="k" horiz-adv-x="1148" d="M0 0v1524h344v-437l391 437h344l-649 -764l647 -760h-344l-389 432v-432h-344z" />
<glyph unicode="l" horiz-adv-x="882" d="M0 0v1524h344v-1180h408v-344h-752z" />
<glyph unicode="m" horiz-adv-x="1558" d="M2 0v1524h350l357 -1028l358 1028h344v-1524h-344v532l-186 -532h-344l-191 549v-549h-344z" />
<glyph unicode="n" horiz-adv-x="1236" d="M2 0v1524h350l428 -850v850h344v-1524h-348l-430 852v-852h-344z" />
<glyph unicode="o" horiz-adv-x="1308" d="M-2 606v357q10 109 54 205t116 173q86 88 192.5 135.5t227.5 47.5h2q121 0 228.5 -47t191.5 -136q74 -78 116.5 -174t53.5 -204v-45v-189v-123q-2 -121 -45 -229.5t-125 -194.5q-84 -90 -191.5 -137t-228.5 -47h-2q-119 0 -226.5 47t-193.5 135q-80 86 -124 194.5 t-46 231.5z" />
<glyph unicode="p" horiz-adv-x="1017" d="M0 0v1524h463h2q98 0 184 -37t150.5 -101.5t101.5 -150.5t37 -184t-37 -184.5t-101.5 -151t-150.5 -101t-184 -36.5h-2h-119v-578h-344z" />
<glyph unicode="q" horiz-adv-x="1308" d="M0 606v357q8 109 52 205t118 173q84 88 191.5 135.5t228.5 47.5h2q119 0 226.5 -47t193.5 -136q72 -78 115.5 -174t54.5 -204v-45v-189v-123q-4 -139 -58 -256l189 -350h-369l-47 86q-141 -88 -305 -88h-2q-121 0 -228.5 47t-191.5 135q-82 86 -126 194.5t-44 231.5z" />
<glyph unicode="r" d="M0 0v1524h463h2q98 0 185 -37t151.5 -101.5t101.5 -150.5t37 -184q0 -139 -71.5 -251t-188.5 -171l289 -629h-355l-266 578h-4v-578h-344z" />
<glyph unicode="s" d="M0 473h344q0 -53 37 -91t90 -38q43 0 76 25.5t45 64.5q6 16 6 37q0 53 -37 86t-90 33q-98 0 -183 36t-149.5 98t-101.5 146t-37 183q0 35 5 69.5t15 69.5q23 72 66 133t102.5 105.5t131 69t151.5 24.5q98 0 183 -37t149.5 -101.5t101.5 -150.5t37 -182h-344q0 53 -37 90 t-90 37q-43 0 -76 -26t-45 -64q-6 -14 -6 -37q0 -53 37 -86t90 -33q98 0 183 -36t149.5 -98.5t101.5 -146.5t37 -180q0 -37 -5 -71.5t-15 -69.5q-23 -72 -66 -133.5t-102.5 -105.5t-131 -68.5t-151.5 -24.5q-98 0 -183 37t-149.5 101.5t-101.5 150.5t-37 184z" />
<glyph unicode="t" horiz-adv-x="1128" d="M-18 1180v344h1036v-344h-346v-1180h-344v1180h-346z" />
<glyph unicode="u" horiz-adv-x="1304" d="M2 608v918h344v-912q0 -55 19.5 -104t53.5 -86t79 -58.5t96 -21.5t95 21.5t78 58.5t53.5 86t19.5 104v912h344v-918q-2 -121 -45 -229.5t-125 -194.5q-84 -90 -191.5 -137t-228.5 -47h-2q-119 0 -226.5 47t-193.5 137q-80 86 -124 194.5t-46 229.5z" />
<glyph unicode="v" horiz-adv-x="1478" d="M10 1524h344l361 -1037l360 1037h344l-530 -1524h-348z" />
<glyph unicode="w" horiz-adv-x="1972" d="M4 1524h344l203 -828l201 828h350l201 -828l200 828h344l-370 -1524h-351l-200 827l-201 -827h-350z" />
<glyph unicode="x" horiz-adv-x="1292" d="M4 0l410 762l-410 762h344l238 -443l237 443h344l-409 -762l409 -762h-344l-237 442l-238 -442h-344z" />
<glyph unicode="y" horiz-adv-x="1228" d="M-14 1524h344l239 -443l238 443h344l-410 -762v-762h-344v762z" />
<glyph unicode="z" horiz-adv-x="1136" d="M0 0v344l592 836h-592v344h993v-344l-594 -836h594v-344h-993z" />
<glyph unicode="&#xad;" horiz-adv-x="1200" d="M0 616v345h1059v-345h-1059z" />
<glyph unicode="&#x2000;" horiz-adv-x="811" />
<glyph unicode="&#x2001;" horiz-adv-x="1622" />
<glyph unicode="&#x2002;" horiz-adv-x="811" />
<glyph unicode="&#x2003;" horiz-adv-x="1622" />
<glyph unicode="&#x2004;" horiz-adv-x="540" />
<glyph unicode="&#x2005;" horiz-adv-x="405" />
<glyph unicode="&#x2006;" horiz-adv-x="270" />
<glyph unicode="&#x2007;" horiz-adv-x="270" />
<glyph unicode="&#x2008;" horiz-adv-x="202" />
<glyph unicode="&#x2009;" horiz-adv-x="323" />
<glyph unicode="&#x200a;" horiz-adv-x="90" />
<glyph unicode="&#x2010;" horiz-adv-x="1200" d="M0 616v345h1059v-345h-1059z" />
<glyph unicode="&#x2011;" horiz-adv-x="1200" d="M0 616v345h1059v-345h-1059z" />
<glyph unicode="&#x2012;" horiz-adv-x="1200" d="M0 616v345h1059v-345h-1059z" />
<glyph unicode="&#x2013;" horiz-adv-x="1024" d="M0 616v345h883v-345h-883z" />
<glyph unicode="&#x2014;" horiz-adv-x="2048" d="M0 616v345h1907v-345h-1907z" />
<glyph unicode="&#x2018;" horiz-adv-x="485" d="M-2 1180v344h342v-344l-109 -191h-208l108 191h-133z" />
<glyph unicode="&#x2019;" horiz-adv-x="485" d="M-2 1180v344h342v-344l-109 -191h-208l108 191h-133z" />
<glyph unicode="&#x2026;" horiz-adv-x="1406" d="M938 0v344h342v-344h-342zM469 0v344h342v-344h-342zM0 0v344h342v-344h-342z" />
<glyph unicode="&#x202f;" horiz-adv-x="323" />
<glyph unicode="&#x205f;" horiz-adv-x="405" />
<glyph unicode="&#x2122;" horiz-adv-x="2686" d="M1130 0v1524h350l357 -1028l358 1028h344v-1524h-344v532l-186 -532h-344l-191 549v-549h-344zM-18 1180v344h1036v-344h-346v-1180h-344v1180h-346z" />
<glyph unicode="&#xe000;" horiz-adv-x="1525" d="M0 1525h1525v-1525h-1525v1525z" />
<glyph unicode="&#xfb01;" horiz-adv-x="1558" d="M1069 0v1524h344v-1524h-344zM2 0v1524h934v-344h-590v-246h434v-344h-434v-590h-344z" />
<glyph unicode="&#xfb02;" horiz-adv-x="1951" d="M1069 0v1524h344v-1180h408v-344h-752zM2 0v1524h934v-344h-590v-246h434v-344h-434v-590h-344z" />
<glyph unicode="&#xfb03;" horiz-adv-x="2627" d="M2138 0v1524h344v-1524h-344zM1071 0v1524h934v-344h-590v-246h434v-344h-434v-590h-344zM2 0v1524h934v-344h-590v-246h434v-344h-434v-590h-344z" />
<glyph unicode="&#xfb04;" horiz-adv-x="3020" d="M2138 0v1524h344v-1180h408v-344h-752zM1071 0v1524h934v-344h-590v-246h434v-344h-434v-590h-344zM2 0v1524h934v-344h-590v-246h434v-344h-434v-590h-344z" />
</font>
</defs>
</svg>
